<mxfile host="app.diagrams.net" agent="Mozilla/5.0 (Macintosh; Intel Mac OS X 10_15_7) AppleWebKit/537.36 (KHTML, like Gecko) Chrome/131.0.0.0 Safari/537.36" version="24.9.0">
  <diagram id="shHlo1yC8X_wF76_ZDBa" name="Страница 1">
    <mxGraphModel dx="1832" dy="726" grid="1" gridSize="10" guides="1" tooltips="1" connect="1" arrows="1" fold="1" page="1" pageScale="1" pageWidth="827" pageHeight="1169" math="0" shadow="0">
      <root>
        <mxCell id="0" />
        <mxCell id="1" parent="0" />
        <mxCell id="keKhefzbxvEpWmXAP8D1-1" value="" style="rounded=0;whiteSpace=wrap;html=1;fillColor=none;movable=0;resizable=0;rotatable=0;deletable=0;editable=0;locked=1;connectable=0;imageAspect=0;" parent="1" vertex="1">
          <mxGeometry x="-790" y="200" width="720" height="640" as="geometry" />
        </mxCell>
        <mxCell id="keKhefzbxvEpWmXAP8D1-2" value="Заголовок:&lt;div&gt;&lt;p style=&quot;margin: 0px; font-variant-numeric: normal; font-variant-east-asian: normal; font-variant-alternates: normal; font-size-adjust: none; font-kerning: auto; font-optical-sizing: auto; font-feature-settings: normal; font-variation-settings: normal; font-variant-position: normal; font-variant-emoji: normal; font-stretch: normal; font-size: 14px; line-height: normal; font-family: &amp;quot;.AppleSystemUIFont&amp;quot;; color: rgb(14, 14, 14); text-align: start;&quot; class=&quot;p1&quot;&gt;Выполнение вычислений на удаленном сервере&lt;/p&gt;&lt;/div&gt;" style="rounded=0;whiteSpace=wrap;html=1;fillColor=none;movable=1;resizable=1;rotatable=1;deletable=1;editable=1;locked=0;connectable=1;" parent="1" vertex="1">
          <mxGeometry x="-790" y="790" width="720" height="50" as="geometry" />
        </mxCell>
        <mxCell id="keKhefzbxvEpWmXAP8D1-4" value="узел:&lt;div&gt;А-0&lt;/div&gt;" style="rounded=0;whiteSpace=wrap;html=1;fillColor=none;movable=1;resizable=1;rotatable=1;deletable=1;editable=1;locked=0;connectable=1;" parent="1" vertex="1">
          <mxGeometry x="-790" y="790" width="110.77" height="50" as="geometry" />
        </mxCell>
        <mxCell id="keKhefzbxvEpWmXAP8D1-5" value="Номер:&lt;div&gt;1&lt;/div&gt;" style="rounded=0;whiteSpace=wrap;html=1;fillColor=none;movable=1;resizable=1;rotatable=1;deletable=1;editable=1;locked=0;connectable=1;" parent="1" vertex="1">
          <mxGeometry x="-180.76999999999998" y="790" width="110.77" height="50" as="geometry" />
        </mxCell>
        <mxCell id="keKhefzbxvEpWmXAP8D1-7" value="IDEF0 (TO-BE)" style="rounded=0;whiteSpace=wrap;html=1;fillColor=none;movable=1;resizable=1;rotatable=1;deletable=1;editable=1;locked=0;connectable=1;" parent="1" vertex="1">
          <mxGeometry x="-790" y="200" width="720" height="40" as="geometry" />
        </mxCell>
        <mxCell id="T_qyBE6SqRFNrWc8gcsD-43" value="&lt;span style=&quot;color: rgb(14, 14, 14); font-family: &amp;quot;.AppleSystemUIFont&amp;quot;; font-size: 14px; text-align: start;&quot;&gt;Выполнить вычисления на удаленном сервере&lt;/span&gt;" style="rounded=0;whiteSpace=wrap;html=1;fillColor=none;movable=1;resizable=1;rotatable=1;deletable=1;editable=1;locked=0;connectable=1;" parent="1" vertex="1">
          <mxGeometry x="-511" y="392.5" width="180" height="155" as="geometry" />
        </mxCell>
        <mxCell id="T_qyBE6SqRFNrWc8gcsD-44" value="" style="endArrow=classic;html=1;rounded=0;exitX=0.309;exitY=0.981;exitDx=0;exitDy=0;exitPerimeter=0;movable=1;resizable=1;rotatable=1;deletable=1;editable=1;locked=0;connectable=1;" parent="1" source="T_qyBE6SqRFNrWc8gcsD-64" edge="1">
          <mxGeometry width="50" height="50" relative="1" as="geometry">
            <mxPoint x="-593.3333333333333" y="240" as="sourcePoint" />
            <mxPoint x="-510" y="490" as="targetPoint" />
          </mxGeometry>
        </mxCell>
        <mxCell id="T_qyBE6SqRFNrWc8gcsD-45" value="" style="endArrow=classic;html=1;rounded=0;exitX=0.083;exitY=0.5;exitDx=0;exitDy=0;exitPerimeter=0;movable=1;resizable=1;rotatable=1;deletable=1;editable=1;locked=0;connectable=1;" parent="1" edge="1">
          <mxGeometry width="50" height="50" relative="1" as="geometry">
            <mxPoint x="-650" y="450" as="sourcePoint" />
            <mxPoint x="-510" y="450" as="targetPoint" />
          </mxGeometry>
        </mxCell>
        <mxCell id="T_qyBE6SqRFNrWc8gcsD-48" value="" style="endArrow=classic;html=1;rounded=0;entryX=0.25;entryY=0;entryDx=0;entryDy=0;exitX=0;exitY=0;exitDx=0;exitDy=0;movable=1;resizable=1;rotatable=1;deletable=1;editable=1;locked=0;connectable=1;" parent="1" source="T_qyBE6SqRFNrWc8gcsD-58" edge="1">
          <mxGeometry width="50" height="50" relative="1" as="geometry">
            <mxPoint x="-470.5" y="269.5" as="sourcePoint" />
            <mxPoint x="-470.5" y="392.5" as="targetPoint" />
          </mxGeometry>
        </mxCell>
        <mxCell id="T_qyBE6SqRFNrWc8gcsD-50" value="" style="endArrow=classic;html=1;rounded=0;exitX=0.083;exitY=0.5;exitDx=0;exitDy=0;exitPerimeter=0;movable=1;resizable=1;rotatable=1;deletable=1;editable=1;locked=0;connectable=1;" parent="1" edge="1">
          <mxGeometry width="50" height="50" relative="1" as="geometry">
            <mxPoint x="-331" y="510" as="sourcePoint" />
            <mxPoint x="-191" y="510" as="targetPoint" />
          </mxGeometry>
        </mxCell>
        <mxCell id="T_qyBE6SqRFNrWc8gcsD-51" value="" style="endArrow=classic;html=1;rounded=0;exitX=0.083;exitY=0.5;exitDx=0;exitDy=0;exitPerimeter=0;movable=1;resizable=1;rotatable=1;deletable=1;editable=1;locked=0;connectable=1;" parent="1" edge="1">
          <mxGeometry width="50" height="50" relative="1" as="geometry">
            <mxPoint x="-331" y="430" as="sourcePoint" />
            <mxPoint x="-191" y="430" as="targetPoint" />
          </mxGeometry>
        </mxCell>
        <mxCell id="T_qyBE6SqRFNrWc8gcsD-53" value="I1" style="text;html=1;align=center;verticalAlign=middle;whiteSpace=wrap;rounded=0;movable=1;resizable=1;rotatable=1;deletable=1;editable=1;locked=0;connectable=1;" parent="1" vertex="1">
          <mxGeometry x="-550" y="420" width="30" height="30" as="geometry" />
        </mxCell>
        <mxCell id="T_qyBE6SqRFNrWc8gcsD-54" value="I2" style="text;html=1;align=center;verticalAlign=middle;whiteSpace=wrap;rounded=0;movable=1;resizable=1;rotatable=1;deletable=1;editable=1;locked=0;connectable=1;" parent="1" vertex="1">
          <mxGeometry x="-550" y="460" width="30" height="30" as="geometry" />
        </mxCell>
        <mxCell id="T_qyBE6SqRFNrWc8gcsD-58" value="C1" style="text;html=1;align=center;verticalAlign=middle;whiteSpace=wrap;rounded=0;movable=1;resizable=1;rotatable=1;deletable=1;editable=1;locked=0;connectable=1;" parent="1" vertex="1">
          <mxGeometry x="-470.5" y="350" width="30" height="30" as="geometry" />
        </mxCell>
        <mxCell id="T_qyBE6SqRFNrWc8gcsD-59" value="O1" style="text;html=1;align=center;verticalAlign=middle;whiteSpace=wrap;rounded=0;movable=1;resizable=1;rotatable=1;deletable=1;editable=1;locked=0;connectable=1;" parent="1" vertex="1">
          <mxGeometry x="-331" y="400" width="30" height="30" as="geometry" />
        </mxCell>
        <mxCell id="T_qyBE6SqRFNrWc8gcsD-60" value="O2" style="text;html=1;align=center;verticalAlign=middle;whiteSpace=wrap;rounded=0;movable=1;resizable=1;rotatable=1;deletable=1;editable=1;locked=0;connectable=1;" parent="1" vertex="1">
          <mxGeometry x="-331" y="480" width="30" height="30" as="geometry" />
        </mxCell>
        <mxCell id="T_qyBE6SqRFNrWc8gcsD-62" value="&lt;p class=&quot;p1&quot; style=&quot;margin: 0px; font-variant-numeric: normal; font-variant-east-asian: normal; font-variant-alternates: normal; font-size-adjust: none; font-kerning: auto; font-optical-sizing: auto; font-feature-settings: normal; font-variation-settings: normal; font-variant-position: normal; font-variant-emoji: normal; font-stretch: normal; line-height: normal; color: rgb(14, 14, 14);&quot;&gt;&lt;font style=&quot;font-size: 9px;&quot; face=&quot;Helvetica&quot;&gt;Запрос на вычисления или развертывание контейнера&lt;/font&gt;&lt;/p&gt;" style="text;html=1;align=center;verticalAlign=middle;whiteSpace=wrap;rounded=0;movable=1;resizable=1;rotatable=1;deletable=1;editable=1;locked=0;connectable=1;" parent="1" vertex="1">
          <mxGeometry x="-700" y="410" width="150" height="40" as="geometry" />
        </mxCell>
        <mxCell id="T_qyBE6SqRFNrWc8gcsD-64" value="&lt;p class=&quot;p1&quot; style=&quot;margin: 0px; font-variant-numeric: normal; font-variant-east-asian: normal; font-variant-alternates: normal; font-size-adjust: none; font-kerning: auto; font-optical-sizing: auto; font-feature-settings: normal; font-variation-settings: normal; font-variant-position: normal; font-variant-emoji: normal; font-stretch: normal; line-height: normal;&quot;&gt;&lt;font size=&quot;1&quot; color=&quot;#0e0e0e&quot;&gt;Информация о клиенте&lt;/font&gt;&lt;/p&gt;" style="text;html=1;align=center;verticalAlign=middle;whiteSpace=wrap;rounded=0;movable=1;resizable=1;rotatable=1;deletable=1;editable=1;locked=0;connectable=1;" parent="1" vertex="1">
          <mxGeometry x="-700" y="450" width="150" height="40" as="geometry" />
        </mxCell>
        <mxCell id="T_qyBE6SqRFNrWc8gcsD-67" value="&lt;p class=&quot;p1&quot; style=&quot;margin: 0px; font-variant-numeric: normal; font-variant-east-asian: normal; font-variant-alternates: normal; font-size-adjust: none; font-kerning: auto; font-optical-sizing: auto; font-feature-settings: normal; font-variation-settings: normal; font-variant-position: normal; font-variant-emoji: normal; font-stretch: normal; line-height: normal;&quot;&gt;&lt;font size=&quot;1&quot; color=&quot;#0e0e0e&quot;&gt;Ограничения по пропускной способности сети&lt;/font&gt;&lt;/p&gt;" style="text;html=1;align=center;verticalAlign=middle;whiteSpace=wrap;rounded=0;movable=1;resizable=1;rotatable=1;deletable=1;editable=1;locked=0;connectable=1;" parent="1" vertex="1">
          <mxGeometry x="-500.5" y="260" width="70" height="80" as="geometry" />
        </mxCell>
        <mxCell id="T_qyBE6SqRFNrWc8gcsD-68" value="" style="endArrow=classic;html=1;rounded=0;entryX=0.25;entryY=0;entryDx=0;entryDy=0;exitX=0;exitY=0;exitDx=0;exitDy=0;movable=1;resizable=1;rotatable=1;deletable=1;editable=1;locked=0;connectable=1;" parent="1" source="T_qyBE6SqRFNrWc8gcsD-69" edge="1">
          <mxGeometry width="50" height="50" relative="1" as="geometry">
            <mxPoint x="-391.5" y="269.5" as="sourcePoint" />
            <mxPoint x="-391.5" y="392.5" as="targetPoint" />
          </mxGeometry>
        </mxCell>
        <mxCell id="T_qyBE6SqRFNrWc8gcsD-69" value="C2" style="text;html=1;align=center;verticalAlign=middle;whiteSpace=wrap;rounded=0;movable=1;resizable=1;rotatable=1;deletable=1;editable=1;locked=0;connectable=1;" parent="1" vertex="1">
          <mxGeometry x="-391.5" y="350" width="30" height="30" as="geometry" />
        </mxCell>
        <mxCell id="T_qyBE6SqRFNrWc8gcsD-70" value="&lt;p class=&quot;p1&quot; style=&quot;margin: 0px; font-variant-numeric: normal; font-variant-east-asian: normal; font-variant-alternates: normal; font-size-adjust: none; font-kerning: auto; font-optical-sizing: auto; font-feature-settings: normal; font-variation-settings: normal; font-variant-position: normal; font-variant-emoji: normal; font-stretch: normal; line-height: normal;&quot;&gt;&lt;font size=&quot;1&quot; color=&quot;#0e0e0e&quot;&gt;Политики безопасности и соответствия стандартам&lt;/font&gt;&lt;/p&gt;" style="text;html=1;align=center;verticalAlign=middle;whiteSpace=wrap;rounded=0;movable=1;resizable=1;rotatable=1;deletable=1;editable=1;locked=0;connectable=1;" parent="1" vertex="1">
          <mxGeometry x="-421.5" y="260" width="70" height="80" as="geometry" />
        </mxCell>
        <mxCell id="T_qyBE6SqRFNrWc8gcsD-75" value="" style="endArrow=classic;html=1;rounded=0;entryX=0.5;entryY=1;entryDx=0;entryDy=0;movable=1;resizable=1;rotatable=1;deletable=1;editable=1;locked=0;connectable=1;" parent="1" edge="1">
          <mxGeometry width="50" height="50" relative="1" as="geometry">
            <mxPoint x="-466" y="590" as="sourcePoint" />
            <mxPoint x="-466" y="547.5" as="targetPoint" />
          </mxGeometry>
        </mxCell>
        <mxCell id="T_qyBE6SqRFNrWc8gcsD-76" value="M1" style="text;html=1;align=center;verticalAlign=middle;whiteSpace=wrap;rounded=0;movable=1;resizable=1;rotatable=1;deletable=1;editable=1;locked=0;connectable=1;" parent="1" vertex="1">
          <mxGeometry x="-466" y="547.5" width="30" height="30" as="geometry" />
        </mxCell>
        <mxCell id="T_qyBE6SqRFNrWc8gcsD-77" value="&lt;p class=&quot;p1&quot; style=&quot;margin: 0px; font-variant-numeric: normal; font-variant-east-asian: normal; font-variant-alternates: normal; font-size-adjust: none; font-kerning: auto; font-optical-sizing: auto; font-feature-settings: normal; font-variation-settings: normal; font-variant-position: normal; font-variant-emoji: normal; font-stretch: normal; line-height: normal;&quot;&gt;&lt;font size=&quot;1&quot; color=&quot;#0e0e0e&quot;&gt;&amp;nbsp;Клиенты&lt;/font&gt;&lt;/p&gt;" style="text;html=1;align=center;verticalAlign=middle;whiteSpace=wrap;rounded=0;movable=1;resizable=1;rotatable=1;deletable=1;editable=1;locked=0;connectable=1;" parent="1" vertex="1">
          <mxGeometry x="-501" y="590" width="70" height="80" as="geometry" />
        </mxCell>
        <mxCell id="T_qyBE6SqRFNrWc8gcsD-78" value="" style="endArrow=classic;html=1;rounded=0;entryX=0.5;entryY=1;entryDx=0;entryDy=0;movable=1;resizable=1;rotatable=1;deletable=1;editable=1;locked=0;connectable=1;" parent="1" edge="1">
          <mxGeometry width="50" height="50" relative="1" as="geometry">
            <mxPoint x="-381.5" y="590" as="sourcePoint" />
            <mxPoint x="-381.5" y="547.5" as="targetPoint" />
          </mxGeometry>
        </mxCell>
        <mxCell id="T_qyBE6SqRFNrWc8gcsD-79" value="M2" style="text;html=1;align=center;verticalAlign=middle;whiteSpace=wrap;rounded=0;movable=1;resizable=1;rotatable=1;deletable=1;editable=1;locked=0;connectable=1;" parent="1" vertex="1">
          <mxGeometry x="-381.5" y="547.5" width="30" height="30" as="geometry" />
        </mxCell>
        <mxCell id="T_qyBE6SqRFNrWc8gcsD-80" value="&lt;p class=&quot;p1&quot; style=&quot;margin: 0px; font-variant-numeric: normal; font-variant-east-asian: normal; font-variant-alternates: normal; font-size-adjust: none; font-kerning: auto; font-optical-sizing: auto; font-feature-settings: normal; font-variation-settings: normal; font-variant-position: normal; font-variant-emoji: normal; font-stretch: normal; line-height: normal;&quot;&gt;&lt;font size=&quot;1&quot; color=&quot;#0e0e0e&quot;&gt;Плаотформа управления развертыванием&amp;nbsp;&lt;/font&gt;&lt;/p&gt;" style="text;html=1;align=center;verticalAlign=middle;whiteSpace=wrap;rounded=0;movable=1;resizable=1;rotatable=1;deletable=1;editable=1;locked=0;connectable=1;" parent="1" vertex="1">
          <mxGeometry x="-416.5" y="590" width="70" height="80" as="geometry" />
        </mxCell>
        <mxCell id="T_qyBE6SqRFNrWc8gcsD-81" value="&lt;p class=&quot;p1&quot; style=&quot;margin: 0px; font-variant-numeric: normal; font-variant-east-asian: normal; font-variant-alternates: normal; font-size-adjust: none; font-kerning: auto; font-optical-sizing: auto; font-feature-settings: normal; font-variation-settings: normal; font-variant-position: normal; font-variant-emoji: normal; font-stretch: normal; line-height: normal;&quot;&gt;&lt;font size=&quot;1&quot; color=&quot;#0e0e0e&quot;&gt;Выполненные задачи&lt;/font&gt;&lt;/p&gt;" style="text;html=1;align=center;verticalAlign=middle;whiteSpace=wrap;rounded=0;movable=1;resizable=1;rotatable=1;deletable=1;editable=1;locked=0;connectable=1;" parent="1" vertex="1">
          <mxGeometry x="-301" y="392.5" width="110" height="40" as="geometry" />
        </mxCell>
        <mxCell id="T_qyBE6SqRFNrWc8gcsD-82" value="&lt;p class=&quot;p1&quot; style=&quot;margin: 0px; font-variant-numeric: normal; font-variant-east-asian: normal; font-variant-alternates: normal; font-size-adjust: none; font-kerning: auto; font-optical-sizing: auto; font-feature-settings: normal; font-variation-settings: normal; font-variant-position: normal; font-variant-emoji: normal; font-stretch: normal; line-height: normal;&quot;&gt;&lt;font size=&quot;1&quot; color=&quot;#0e0e0e&quot;&gt;Логи выполнения&lt;/font&gt;&lt;/p&gt;" style="text;html=1;align=center;verticalAlign=middle;whiteSpace=wrap;rounded=0;movable=1;resizable=1;rotatable=1;deletable=1;editable=1;locked=0;connectable=1;" parent="1" vertex="1">
          <mxGeometry x="-291" y="470" width="100" height="40" as="geometry" />
        </mxCell>
        <mxCell id="T_qyBE6SqRFNrWc8gcsD-83" value="ТОЧКА ЗРЕНИЯ: Клиент" style="text;html=1;align=center;verticalAlign=middle;whiteSpace=wrap;rounded=0;" parent="1" vertex="1">
          <mxGeometry x="-685" y="730" width="144.61" height="30" as="geometry" />
        </mxCell>
        <mxCell id="T_qyBE6SqRFNrWc8gcsD-86" value="ЦЕЛЬ:&amp;nbsp;Выявление проблемных областей бизнес-процесса выполнения задач на удаленных серверах&amp;nbsp;" style="text;html=1;align=left;verticalAlign=middle;whiteSpace=wrap;rounded=0;" parent="1" vertex="1">
          <mxGeometry x="-685" y="700" width="404" height="30" as="geometry" />
        </mxCell>
      </root>
    </mxGraphModel>
  </diagram>
</mxfile>
